<mxfile host="app.diagrams.net" modified="2020-10-04T16:17:48.383Z" agent="5.0 (Windows NT 10.0; Win64; x64) AppleWebKit/537.36 (KHTML, like Gecko) Chrome/85.0.4183.121 Safari/537.36 Edg/85.0.564.68" etag="2ElQP_5PVFH8TsSyHIaP" version="13.7.7" type="github">
  <diagram name="Page-1" id="6133507b-19e7-1e82-6fc7-422aa6c4b21f">
    <mxGraphModel dx="1038" dy="532" grid="1" gridSize="10" guides="1" tooltips="1" connect="1" arrows="1" fold="1" page="1" pageScale="1" pageWidth="1100" pageHeight="850" background="#ffffff" math="0" shadow="0">
      <root>
        <mxCell id="0" />
        <mxCell id="1" parent="0" />
        <mxCell id="IO8GIGBL9XiZ4tmUcEtB-36" value="Пользователь" style="shape=table;html=1;whiteSpace=wrap;startSize=30;container=1;collapsible=0;childLayout=tableLayout;fixedRows=1;rowLines=0;fontStyle=1;align=center;" vertex="1" parent="1">
          <mxGeometry x="240" y="360" width="180" height="150" as="geometry" />
        </mxCell>
        <mxCell id="IO8GIGBL9XiZ4tmUcEtB-37" value="" style="shape=partialRectangle;html=1;whiteSpace=wrap;collapsible=0;dropTarget=0;pointerEvents=0;fillColor=none;top=0;left=0;bottom=1;right=0;points=[[0,0.5],[1,0.5]];portConstraint=eastwest;" vertex="1" parent="IO8GIGBL9XiZ4tmUcEtB-36">
          <mxGeometry y="30" width="180" height="30" as="geometry" />
        </mxCell>
        <mxCell id="IO8GIGBL9XiZ4tmUcEtB-38" value="1" style="shape=partialRectangle;html=1;whiteSpace=wrap;connectable=0;fillColor=none;top=0;left=0;bottom=0;right=0;overflow=hidden;" vertex="1" parent="IO8GIGBL9XiZ4tmUcEtB-37">
          <mxGeometry width="40" height="30" as="geometry" />
        </mxCell>
        <mxCell id="IO8GIGBL9XiZ4tmUcEtB-39" value="ID&amp;nbsp; &amp;nbsp;int" style="shape=partialRectangle;html=1;whiteSpace=wrap;connectable=0;fillColor=none;top=0;left=0;bottom=0;right=0;align=left;spacingLeft=6;overflow=hidden;" vertex="1" parent="IO8GIGBL9XiZ4tmUcEtB-37">
          <mxGeometry x="40" width="140" height="30" as="geometry" />
        </mxCell>
        <mxCell id="IO8GIGBL9XiZ4tmUcEtB-40" value="" style="shape=partialRectangle;html=1;whiteSpace=wrap;collapsible=0;dropTarget=0;pointerEvents=0;fillColor=none;top=0;left=0;bottom=0;right=0;points=[[0,0.5],[1,0.5]];portConstraint=eastwest;" vertex="1" parent="IO8GIGBL9XiZ4tmUcEtB-36">
          <mxGeometry y="60" width="180" height="30" as="geometry" />
        </mxCell>
        <mxCell id="IO8GIGBL9XiZ4tmUcEtB-41" value="2" style="shape=partialRectangle;html=1;whiteSpace=wrap;connectable=0;fillColor=none;top=0;left=0;bottom=0;right=0;overflow=hidden;" vertex="1" parent="IO8GIGBL9XiZ4tmUcEtB-40">
          <mxGeometry width="40" height="30" as="geometry" />
        </mxCell>
        <mxCell id="IO8GIGBL9XiZ4tmUcEtB-42" value="Логин" style="shape=partialRectangle;html=1;whiteSpace=wrap;connectable=0;fillColor=none;top=0;left=0;bottom=0;right=0;align=left;spacingLeft=6;overflow=hidden;" vertex="1" parent="IO8GIGBL9XiZ4tmUcEtB-40">
          <mxGeometry x="40" width="140" height="30" as="geometry" />
        </mxCell>
        <mxCell id="IO8GIGBL9XiZ4tmUcEtB-43" value="" style="shape=partialRectangle;html=1;whiteSpace=wrap;collapsible=0;dropTarget=0;pointerEvents=0;fillColor=none;top=0;left=0;bottom=0;right=0;points=[[0,0.5],[1,0.5]];portConstraint=eastwest;" vertex="1" parent="IO8GIGBL9XiZ4tmUcEtB-36">
          <mxGeometry y="90" width="180" height="30" as="geometry" />
        </mxCell>
        <mxCell id="IO8GIGBL9XiZ4tmUcEtB-44" value="3" style="shape=partialRectangle;html=1;whiteSpace=wrap;connectable=0;fillColor=none;top=0;left=0;bottom=0;right=0;overflow=hidden;" vertex="1" parent="IO8GIGBL9XiZ4tmUcEtB-43">
          <mxGeometry width="40" height="30" as="geometry" />
        </mxCell>
        <mxCell id="IO8GIGBL9XiZ4tmUcEtB-45" value="Пароль" style="shape=partialRectangle;html=1;whiteSpace=wrap;connectable=0;fillColor=none;top=0;left=0;bottom=0;right=0;align=left;spacingLeft=6;overflow=hidden;" vertex="1" parent="IO8GIGBL9XiZ4tmUcEtB-43">
          <mxGeometry x="40" width="140" height="30" as="geometry" />
        </mxCell>
        <mxCell id="IO8GIGBL9XiZ4tmUcEtB-63" style="edgeStyle=orthogonalEdgeStyle;rounded=0;orthogonalLoop=1;jettySize=auto;html=1;entryX=0;entryY=0.5;entryDx=0;entryDy=0;" edge="1" parent="1" target="IO8GIGBL9XiZ4tmUcEtB-23">
          <mxGeometry relative="1" as="geometry">
            <mxPoint x="703" y="435" as="sourcePoint" />
          </mxGeometry>
        </mxCell>
        <mxCell id="IO8GIGBL9XiZ4tmUcEtB-62" style="edgeStyle=orthogonalEdgeStyle;rounded=0;orthogonalLoop=1;jettySize=auto;html=1;exitX=1;exitY=0.5;exitDx=0;exitDy=0;entryX=0;entryY=0.5;entryDx=0;entryDy=0;" edge="1" parent="1" source="IO8GIGBL9XiZ4tmUcEtB-40" target="IO8GIGBL9XiZ4tmUcEtB-50">
          <mxGeometry relative="1" as="geometry" />
        </mxCell>
        <mxCell id="IO8GIGBL9XiZ4tmUcEtB-46" value="книгарецептов" style="shape=table;html=1;whiteSpace=wrap;startSize=30;container=1;collapsible=0;childLayout=tableLayout;fixedRows=1;rowLines=0;fontStyle=1;align=center;" vertex="1" parent="1">
          <mxGeometry x="520" y="360" width="180" height="120" as="geometry" />
        </mxCell>
        <mxCell id="IO8GIGBL9XiZ4tmUcEtB-47" value="" style="shape=partialRectangle;html=1;whiteSpace=wrap;collapsible=0;dropTarget=0;pointerEvents=0;fillColor=none;top=0;left=0;bottom=1;right=0;points=[[0,0.5],[1,0.5]];portConstraint=eastwest;" vertex="1" parent="IO8GIGBL9XiZ4tmUcEtB-46">
          <mxGeometry y="30" width="180" height="30" as="geometry" />
        </mxCell>
        <mxCell id="IO8GIGBL9XiZ4tmUcEtB-48" value="1" style="shape=partialRectangle;html=1;whiteSpace=wrap;connectable=0;fillColor=none;top=0;left=0;bottom=0;right=0;overflow=hidden;" vertex="1" parent="IO8GIGBL9XiZ4tmUcEtB-47">
          <mxGeometry width="40" height="30" as="geometry" />
        </mxCell>
        <mxCell id="IO8GIGBL9XiZ4tmUcEtB-49" value="книга_id" style="shape=partialRectangle;html=1;whiteSpace=wrap;connectable=0;fillColor=none;top=0;left=0;bottom=0;right=0;align=left;spacingLeft=6;overflow=hidden;" vertex="1" parent="IO8GIGBL9XiZ4tmUcEtB-47">
          <mxGeometry x="40" width="140" height="30" as="geometry" />
        </mxCell>
        <mxCell id="IO8GIGBL9XiZ4tmUcEtB-50" value="" style="shape=partialRectangle;html=1;whiteSpace=wrap;collapsible=0;dropTarget=0;pointerEvents=0;fillColor=none;top=0;left=0;bottom=0;right=0;points=[[0,0.5],[1,0.5]];portConstraint=eastwest;" vertex="1" parent="IO8GIGBL9XiZ4tmUcEtB-46">
          <mxGeometry y="60" width="180" height="30" as="geometry" />
        </mxCell>
        <mxCell id="IO8GIGBL9XiZ4tmUcEtB-51" value="2" style="shape=partialRectangle;html=1;whiteSpace=wrap;connectable=0;fillColor=none;top=0;left=0;bottom=0;right=0;overflow=hidden;" vertex="1" parent="IO8GIGBL9XiZ4tmUcEtB-50">
          <mxGeometry width="40" height="30" as="geometry" />
        </mxCell>
        <mxCell id="IO8GIGBL9XiZ4tmUcEtB-52" value="Пользователь id" style="shape=partialRectangle;html=1;whiteSpace=wrap;connectable=0;fillColor=none;top=0;left=0;bottom=0;right=0;align=left;spacingLeft=6;overflow=hidden;" vertex="1" parent="IO8GIGBL9XiZ4tmUcEtB-50">
          <mxGeometry x="40" width="140" height="30" as="geometry" />
        </mxCell>
        <mxCell id="IO8GIGBL9XiZ4tmUcEtB-19" value="Категории" style="shape=table;html=1;whiteSpace=wrap;startSize=30;container=1;collapsible=0;childLayout=tableLayout;fixedRows=1;rowLines=0;fontStyle=1;align=center;" vertex="1" parent="1">
          <mxGeometry x="800" y="360" width="180" height="150" as="geometry" />
        </mxCell>
        <mxCell id="IO8GIGBL9XiZ4tmUcEtB-20" value="" style="shape=partialRectangle;html=1;whiteSpace=wrap;collapsible=0;dropTarget=0;pointerEvents=0;fillColor=none;top=0;left=0;bottom=1;right=0;points=[[0,0.5],[1,0.5]];portConstraint=eastwest;" vertex="1" parent="IO8GIGBL9XiZ4tmUcEtB-19">
          <mxGeometry y="30" width="180" height="30" as="geometry" />
        </mxCell>
        <mxCell id="IO8GIGBL9XiZ4tmUcEtB-21" value="1" style="shape=partialRectangle;html=1;whiteSpace=wrap;connectable=0;fillColor=none;top=0;left=0;bottom=0;right=0;overflow=hidden;" vertex="1" parent="IO8GIGBL9XiZ4tmUcEtB-20">
          <mxGeometry width="40" height="30" as="geometry" />
        </mxCell>
        <mxCell id="IO8GIGBL9XiZ4tmUcEtB-22" value="ID категории int" style="shape=partialRectangle;html=1;whiteSpace=wrap;connectable=0;fillColor=none;top=0;left=0;bottom=0;right=0;align=left;spacingLeft=6;overflow=hidden;" vertex="1" parent="IO8GIGBL9XiZ4tmUcEtB-20">
          <mxGeometry x="40" width="140" height="30" as="geometry" />
        </mxCell>
        <mxCell id="IO8GIGBL9XiZ4tmUcEtB-23" value="" style="shape=partialRectangle;html=1;whiteSpace=wrap;collapsible=0;dropTarget=0;pointerEvents=0;fillColor=none;top=0;left=0;bottom=0;right=0;points=[[0,0.5],[1,0.5]];portConstraint=eastwest;" vertex="1" parent="IO8GIGBL9XiZ4tmUcEtB-19">
          <mxGeometry y="60" width="180" height="30" as="geometry" />
        </mxCell>
        <mxCell id="IO8GIGBL9XiZ4tmUcEtB-24" value="2" style="shape=partialRectangle;html=1;whiteSpace=wrap;connectable=0;fillColor=none;top=0;left=0;bottom=0;right=0;overflow=hidden;" vertex="1" parent="IO8GIGBL9XiZ4tmUcEtB-23">
          <mxGeometry width="40" height="30" as="geometry" />
        </mxCell>
        <mxCell id="IO8GIGBL9XiZ4tmUcEtB-25" value="Название категории" style="shape=partialRectangle;html=1;whiteSpace=wrap;connectable=0;fillColor=none;top=0;left=0;bottom=0;right=0;align=left;spacingLeft=6;overflow=hidden;" vertex="1" parent="IO8GIGBL9XiZ4tmUcEtB-23">
          <mxGeometry x="40" width="140" height="30" as="geometry" />
        </mxCell>
        <mxCell id="IO8GIGBL9XiZ4tmUcEtB-26" value="" style="shape=partialRectangle;html=1;whiteSpace=wrap;collapsible=0;dropTarget=0;pointerEvents=0;fillColor=none;top=0;left=0;bottom=0;right=0;points=[[0,0.5],[1,0.5]];portConstraint=eastwest;" vertex="1" parent="IO8GIGBL9XiZ4tmUcEtB-19">
          <mxGeometry y="90" width="180" height="30" as="geometry" />
        </mxCell>
        <mxCell id="IO8GIGBL9XiZ4tmUcEtB-27" value="3" style="shape=partialRectangle;html=1;whiteSpace=wrap;connectable=0;fillColor=none;top=0;left=0;bottom=0;right=0;overflow=hidden;" vertex="1" parent="IO8GIGBL9XiZ4tmUcEtB-26">
          <mxGeometry width="40" height="30" as="geometry" />
        </mxCell>
        <mxCell id="IO8GIGBL9XiZ4tmUcEtB-28" value="Value 3" style="shape=partialRectangle;html=1;whiteSpace=wrap;connectable=0;fillColor=none;top=0;left=0;bottom=0;right=0;align=left;spacingLeft=6;overflow=hidden;" vertex="1" parent="IO8GIGBL9XiZ4tmUcEtB-26">
          <mxGeometry x="40" width="140" height="30" as="geometry" />
        </mxCell>
        <mxCell id="IO8GIGBL9XiZ4tmUcEtB-75" value="Рецепты" style="shape=table;html=1;whiteSpace=wrap;startSize=30;container=1;collapsible=0;childLayout=tableLayout;fixedRows=1;rowLines=0;fontStyle=1;align=center;" vertex="1" parent="1">
          <mxGeometry x="540" y="570" width="180" height="190" as="geometry" />
        </mxCell>
        <mxCell id="IO8GIGBL9XiZ4tmUcEtB-76" value="" style="shape=partialRectangle;html=1;whiteSpace=wrap;collapsible=0;dropTarget=0;pointerEvents=0;fillColor=none;top=0;left=0;bottom=1;right=0;points=[[0,0.5],[1,0.5]];portConstraint=eastwest;" vertex="1" parent="IO8GIGBL9XiZ4tmUcEtB-75">
          <mxGeometry y="30" width="180" height="30" as="geometry" />
        </mxCell>
        <mxCell id="IO8GIGBL9XiZ4tmUcEtB-77" value="1" style="shape=partialRectangle;html=1;whiteSpace=wrap;connectable=0;fillColor=none;top=0;left=0;bottom=0;right=0;overflow=hidden;" vertex="1" parent="IO8GIGBL9XiZ4tmUcEtB-76">
          <mxGeometry width="40" height="30" as="geometry" />
        </mxCell>
        <mxCell id="IO8GIGBL9XiZ4tmUcEtB-78" value="ID рецепт int" style="shape=partialRectangle;html=1;whiteSpace=wrap;connectable=0;fillColor=none;top=0;left=0;bottom=0;right=0;align=left;spacingLeft=6;overflow=hidden;" vertex="1" parent="IO8GIGBL9XiZ4tmUcEtB-76">
          <mxGeometry x="40" width="140" height="30" as="geometry" />
        </mxCell>
        <mxCell id="IO8GIGBL9XiZ4tmUcEtB-79" value="" style="shape=partialRectangle;html=1;whiteSpace=wrap;collapsible=0;dropTarget=0;pointerEvents=0;fillColor=none;top=0;left=0;bottom=0;right=0;points=[[0,0.5],[1,0.5]];portConstraint=eastwest;" vertex="1" parent="IO8GIGBL9XiZ4tmUcEtB-75">
          <mxGeometry y="60" width="180" height="30" as="geometry" />
        </mxCell>
        <mxCell id="IO8GIGBL9XiZ4tmUcEtB-80" value="2" style="shape=partialRectangle;html=1;whiteSpace=wrap;connectable=0;fillColor=none;top=0;left=0;bottom=0;right=0;overflow=hidden;" vertex="1" parent="IO8GIGBL9XiZ4tmUcEtB-79">
          <mxGeometry width="40" height="30" as="geometry" />
        </mxCell>
        <mxCell id="IO8GIGBL9XiZ4tmUcEtB-81" value="Категория" style="shape=partialRectangle;html=1;whiteSpace=wrap;connectable=0;fillColor=none;top=0;left=0;bottom=0;right=0;align=left;spacingLeft=6;overflow=hidden;" vertex="1" parent="IO8GIGBL9XiZ4tmUcEtB-79">
          <mxGeometry x="40" width="140" height="30" as="geometry" />
        </mxCell>
        <mxCell id="IO8GIGBL9XiZ4tmUcEtB-82" value="" style="shape=partialRectangle;html=1;whiteSpace=wrap;collapsible=0;dropTarget=0;pointerEvents=0;fillColor=none;top=0;left=0;bottom=0;right=0;points=[[0,0.5],[1,0.5]];portConstraint=eastwest;" vertex="1" parent="IO8GIGBL9XiZ4tmUcEtB-75">
          <mxGeometry y="90" width="180" height="30" as="geometry" />
        </mxCell>
        <mxCell id="IO8GIGBL9XiZ4tmUcEtB-83" value="3" style="shape=partialRectangle;html=1;whiteSpace=wrap;connectable=0;fillColor=none;top=0;left=0;bottom=0;right=0;overflow=hidden;" vertex="1" parent="IO8GIGBL9XiZ4tmUcEtB-82">
          <mxGeometry width="40" height="30" as="geometry" />
        </mxCell>
        <mxCell id="IO8GIGBL9XiZ4tmUcEtB-84" value="Название блюда" style="shape=partialRectangle;html=1;whiteSpace=wrap;connectable=0;fillColor=none;top=0;left=0;bottom=0;right=0;align=left;spacingLeft=6;overflow=hidden;" vertex="1" parent="IO8GIGBL9XiZ4tmUcEtB-82">
          <mxGeometry x="40" width="140" height="30" as="geometry" />
        </mxCell>
        <mxCell id="IO8GIGBL9XiZ4tmUcEtB-85" value="" style="shape=partialRectangle;html=1;whiteSpace=wrap;collapsible=0;dropTarget=0;pointerEvents=0;fillColor=none;top=0;left=0;bottom=0;right=0;points=[[0,0.5],[1,0.5]];portConstraint=eastwest;" vertex="1" parent="IO8GIGBL9XiZ4tmUcEtB-75">
          <mxGeometry y="120" width="180" height="30" as="geometry" />
        </mxCell>
        <mxCell id="IO8GIGBL9XiZ4tmUcEtB-86" value="4" style="shape=partialRectangle;html=1;whiteSpace=wrap;connectable=0;fillColor=none;top=0;left=0;bottom=0;right=0;overflow=hidden;" vertex="1" parent="IO8GIGBL9XiZ4tmUcEtB-85">
          <mxGeometry width="40" height="30" as="geometry" />
        </mxCell>
        <mxCell id="IO8GIGBL9XiZ4tmUcEtB-87" value="Ингредиетны" style="shape=partialRectangle;html=1;whiteSpace=wrap;connectable=0;fillColor=none;top=0;left=0;bottom=0;right=0;align=left;spacingLeft=6;overflow=hidden;" vertex="1" parent="IO8GIGBL9XiZ4tmUcEtB-85">
          <mxGeometry x="40" width="140" height="30" as="geometry" />
        </mxCell>
        <mxCell id="IO8GIGBL9XiZ4tmUcEtB-88" value="" style="shape=partialRectangle;html=1;whiteSpace=wrap;collapsible=0;dropTarget=0;pointerEvents=0;fillColor=none;top=0;left=0;bottom=0;right=0;points=[[0,0.5],[1,0.5]];portConstraint=eastwest;" vertex="1" parent="IO8GIGBL9XiZ4tmUcEtB-75">
          <mxGeometry y="150" width="180" height="30" as="geometry" />
        </mxCell>
        <mxCell id="IO8GIGBL9XiZ4tmUcEtB-89" value="5" style="shape=partialRectangle;html=1;whiteSpace=wrap;connectable=0;fillColor=none;top=0;left=0;bottom=0;right=0;overflow=hidden;" vertex="1" parent="IO8GIGBL9XiZ4tmUcEtB-88">
          <mxGeometry width="40" height="30" as="geometry" />
        </mxCell>
        <mxCell id="IO8GIGBL9XiZ4tmUcEtB-90" value="Рецепт" style="shape=partialRectangle;html=1;whiteSpace=wrap;connectable=0;fillColor=none;top=0;left=0;bottom=0;right=0;align=left;spacingLeft=6;overflow=hidden;" vertex="1" parent="IO8GIGBL9XiZ4tmUcEtB-88">
          <mxGeometry x="40" width="140" height="30" as="geometry" />
        </mxCell>
        <mxCell id="IO8GIGBL9XiZ4tmUcEtB-91" style="edgeStyle=orthogonalEdgeStyle;rounded=0;orthogonalLoop=1;jettySize=auto;html=1;exitX=0;exitY=0.5;exitDx=0;exitDy=0;entryX=1;entryY=0.5;entryDx=0;entryDy=0;" edge="1" parent="1" source="IO8GIGBL9XiZ4tmUcEtB-96" target="IO8GIGBL9XiZ4tmUcEtB-82">
          <mxGeometry relative="1" as="geometry">
            <mxPoint x="810" y="705" as="sourcePoint" />
          </mxGeometry>
        </mxCell>
        <mxCell id="IO8GIGBL9XiZ4tmUcEtB-92" value="рецепты в категории" style="shape=table;html=1;whiteSpace=wrap;startSize=30;container=1;collapsible=0;childLayout=tableLayout;fixedRows=1;rowLines=0;fontStyle=1;align=center;" vertex="1" parent="1">
          <mxGeometry x="800" y="600" width="180" height="120" as="geometry" />
        </mxCell>
        <mxCell id="IO8GIGBL9XiZ4tmUcEtB-93" value="" style="shape=partialRectangle;html=1;whiteSpace=wrap;collapsible=0;dropTarget=0;pointerEvents=0;fillColor=none;top=0;left=0;bottom=1;right=0;points=[[0,0.5],[1,0.5]];portConstraint=eastwest;" vertex="1" parent="IO8GIGBL9XiZ4tmUcEtB-92">
          <mxGeometry y="30" width="180" height="30" as="geometry" />
        </mxCell>
        <mxCell id="IO8GIGBL9XiZ4tmUcEtB-94" value="1" style="shape=partialRectangle;html=1;whiteSpace=wrap;connectable=0;fillColor=none;top=0;left=0;bottom=0;right=0;overflow=hidden;" vertex="1" parent="IO8GIGBL9XiZ4tmUcEtB-93">
          <mxGeometry width="40" height="30" as="geometry" />
        </mxCell>
        <mxCell id="IO8GIGBL9XiZ4tmUcEtB-95" value="рецвкатег_id" style="shape=partialRectangle;html=1;whiteSpace=wrap;connectable=0;fillColor=none;top=0;left=0;bottom=0;right=0;align=left;spacingLeft=6;overflow=hidden;" vertex="1" parent="IO8GIGBL9XiZ4tmUcEtB-93">
          <mxGeometry x="40" width="140" height="30" as="geometry" />
        </mxCell>
        <mxCell id="IO8GIGBL9XiZ4tmUcEtB-96" value="" style="shape=partialRectangle;html=1;whiteSpace=wrap;collapsible=0;dropTarget=0;pointerEvents=0;fillColor=none;top=0;left=0;bottom=0;right=0;points=[[0,0.5],[1,0.5]];portConstraint=eastwest;" vertex="1" parent="IO8GIGBL9XiZ4tmUcEtB-92">
          <mxGeometry y="60" width="180" height="30" as="geometry" />
        </mxCell>
        <mxCell id="IO8GIGBL9XiZ4tmUcEtB-97" value="2" style="shape=partialRectangle;html=1;whiteSpace=wrap;connectable=0;fillColor=none;top=0;left=0;bottom=0;right=0;overflow=hidden;" vertex="1" parent="IO8GIGBL9XiZ4tmUcEtB-96">
          <mxGeometry width="40" height="30" as="geometry" />
        </mxCell>
        <mxCell id="IO8GIGBL9XiZ4tmUcEtB-98" value="ID рецепт i" style="shape=partialRectangle;html=1;whiteSpace=wrap;connectable=0;fillColor=none;top=0;left=0;bottom=0;right=0;align=left;spacingLeft=6;overflow=hidden;" vertex="1" parent="IO8GIGBL9XiZ4tmUcEtB-96">
          <mxGeometry x="40" width="140" height="30" as="geometry" />
        </mxCell>
        <mxCell id="IO8GIGBL9XiZ4tmUcEtB-99" value="" style="shape=partialRectangle;html=1;whiteSpace=wrap;collapsible=0;dropTarget=0;pointerEvents=0;fillColor=none;top=0;left=0;bottom=0;right=0;points=[[0,0.5],[1,0.5]];portConstraint=eastwest;" vertex="1" parent="IO8GIGBL9XiZ4tmUcEtB-92">
          <mxGeometry y="90" width="180" height="30" as="geometry" />
        </mxCell>
        <mxCell id="IO8GIGBL9XiZ4tmUcEtB-100" value="" style="shape=partialRectangle;html=1;whiteSpace=wrap;connectable=0;fillColor=none;top=0;left=0;bottom=0;right=0;overflow=hidden;" vertex="1" parent="IO8GIGBL9XiZ4tmUcEtB-99">
          <mxGeometry width="40" height="30" as="geometry" />
        </mxCell>
        <mxCell id="IO8GIGBL9XiZ4tmUcEtB-101" value="" style="shape=partialRectangle;html=1;whiteSpace=wrap;connectable=0;fillColor=none;top=0;left=0;bottom=0;right=0;align=left;spacingLeft=6;overflow=hidden;" vertex="1" parent="IO8GIGBL9XiZ4tmUcEtB-99">
          <mxGeometry x="40" width="140" height="30" as="geometry" />
        </mxCell>
        <mxCell id="IO8GIGBL9XiZ4tmUcEtB-104" style="edgeStyle=orthogonalEdgeStyle;rounded=0;orthogonalLoop=1;jettySize=auto;html=1;exitX=1;exitY=0.5;exitDx=0;exitDy=0;entryX=1;entryY=0.5;entryDx=0;entryDy=0;" edge="1" parent="1" source="IO8GIGBL9XiZ4tmUcEtB-23" target="IO8GIGBL9XiZ4tmUcEtB-96">
          <mxGeometry relative="1" as="geometry">
            <mxPoint x="1040" y="670" as="targetPoint" />
            <Array as="points">
              <mxPoint x="1040" y="435" />
              <mxPoint x="1040" y="675" />
            </Array>
          </mxGeometry>
        </mxCell>
      </root>
    </mxGraphModel>
  </diagram>
</mxfile>
